<svg width="580" height="400" xmlns="http://www.w3.org/2000/svg">
 <!-- Created with Method Draw - http://github.com/duopixel/Method-Draw/ -->
 <g>
  <title>background</title>
  <rect fill="#333333" id="canvas_background" height="402" width="582" y="-1" x="-1"/>
 </g>
 <g>
  <title>Layer 1</title>
  <path stroke="#ff5826" id="svg_112" d="m378.154416,326.122907l2.256941,-21.296281l7.523138,0l2.256941,21.296281l-12.03702,0z" fill-opacity="null" stroke-opacity="null" stroke-width="4" fill="#333333"/>
  <path stroke="#fc6132" id="svg_107" d="m374.923854,88.691591c-1.000053,0.375079 -1.771117,-2.134785 -0.53112,-2.407815c1.091147,0.034446 -0.271362,-1.783947 0.713531,-2.396476c1.13289,-1.845962 2.256576,-3.770962 2.982615,-6.146966c-0.365814,-0.809843 -0.969551,-1.583586 -0.890664,-2.691732c0.71209,-0.404803 1.772899,-0.130438 1.81508,-2.007138c0.647568,-3.38725 0.820289,-6.968595 0.96224,-10.496754c-0.714643,-0.945863 -2.186267,-0.049818 -3.184993,-0.531599c-1.515103,-0.682918 0.56498,-1.990401 1.232187,-1.882676c0.599512,0.001502 1.487238,-0.615385 0.483802,-1.086853c0.846467,-0.065218 2.063933,-1.857877 0.671931,-2.504064c1.032002,-1.237056 0.236782,-3.929071 -0.194118,-5.477224c-0.64959,-1.869472 -1.717767,-3.223421 -2.925109,-3.945406c-0.195473,-1.906367 1.666152,-1.342914 2.421239,-1.441845c1.143358,0.072813 2.309232,-0.022814 3.305383,-1.062172c1.345923,-1.039716 2.490125,0.695519 3.721336,1.062327c1.245359,0.133907 2.540808,-0.374074 3.753411,0.215012c0.375725,0.446229 1.000349,1.151037 0.248085,1.489285c-1.436689,1.335209 -2.778384,3.307693 -3.138532,6.109639c-0.543331,1.558648 0.419842,2.911125 -0.460821,4.028909c-0.009164,1.315141 2.043668,1.49892 0.89449,2.146534c0.787568,0.712898 2.476635,0.263237 2.64899,1.846594c-0.714962,0.939046 -1.717564,0.568458 -2.574225,0.656124c-0.290496,0.165268 -1.020492,-0.403255 -0.909365,0.432541c-0.056921,3.745221 0.525683,7.427699 1.089112,11.02203c0.000719,1.760976 2.601487,0.762512 1.155883,2.761168c-1.06782,1.534866 0.497752,3.685024 1.040124,5.050285c0.737751,1.497656 2.047313,2.255725 1.938011,4.454092c0.751493,0.090328 1.64536,2.043851 0.606342,2.530603c-5.623241,0.196976 -11.250708,0.332574 -16.874847,0.273577l0.000002,0z" fill-opacity="null" stroke-width="3" fill="#333333"/>
  <path stroke="#fc6132" id="svg_106" d="m417.516391,87.765667c-1.000053,0.375079 -1.771117,-2.134785 -0.53112,-2.407815c1.091147,0.034446 -0.271362,-1.783947 0.713531,-2.396476c1.13289,-1.845962 2.256576,-3.770962 2.982615,-6.146966c-0.365814,-0.809843 -0.969551,-1.583586 -0.890664,-2.691732c0.71209,-0.404803 1.772899,-0.130438 1.81508,-2.007138c0.647568,-3.38725 0.820289,-6.968595 0.96224,-10.496754c-0.714643,-0.945863 -2.186267,-0.049818 -3.184993,-0.531599c-1.515103,-0.682918 0.56498,-1.990401 1.232187,-1.882676c0.599512,0.001502 1.487238,-0.615385 0.483802,-1.086853c0.846467,-0.065218 2.063933,-1.857877 0.671931,-2.504064c1.032002,-1.237056 0.236782,-3.929071 -0.194118,-5.477224c-0.64959,-1.869472 -1.717767,-3.223421 -2.925109,-3.945406c-0.195473,-1.906367 1.666152,-1.342914 2.421239,-1.441845c1.143358,0.072813 2.309232,-0.022814 3.305383,-1.062172c1.345923,-1.039716 2.490125,0.695519 3.721336,1.062327c1.245359,0.133907 2.540808,-0.374074 3.753411,0.215012c0.375725,0.446229 1.000349,1.151037 0.248085,1.489285c-1.436689,1.335209 -2.778384,3.307693 -3.138532,6.109639c-0.543331,1.558648 0.419842,2.911125 -0.460821,4.028909c-0.009164,1.315141 2.043668,1.49892 0.89449,2.146534c0.787568,0.712898 2.476635,0.263237 2.64899,1.846594c-0.714962,0.939046 -1.717564,0.568458 -2.574225,0.656124c-0.290496,0.165268 -1.020492,-0.403255 -0.909365,0.432541c-0.056921,3.745221 0.525683,7.427699 1.089112,11.02203c0.000719,1.760976 2.601487,0.762512 1.155883,2.761168c-1.06782,1.534866 0.497752,3.685024 1.040124,5.050285c0.737751,1.497656 2.047313,2.255725 1.938011,4.454092c0.751493,0.090328 1.64536,2.043851 0.606342,2.530603c-5.623241,0.196976 -11.250708,0.332574 -16.874847,0.273577l0.000002,0z" fill-opacity="null" stroke-width="3" fill="#333333"/>
  <path stroke="#fc6132" id="svg_105" d="m126.77603,88.691591c-1.000053,0.375079 -1.771117,-2.134785 -0.53112,-2.407815c1.091147,0.034446 -0.271362,-1.783947 0.713531,-2.396476c1.13289,-1.845962 2.256576,-3.770962 2.982615,-6.146966c-0.365814,-0.809843 -0.969551,-1.583586 -0.890664,-2.691732c0.71209,-0.404803 1.772899,-0.130438 1.81508,-2.007138c0.647568,-3.38725 0.820289,-6.968595 0.96224,-10.496754c-0.714643,-0.945863 -2.186267,-0.049818 -3.184993,-0.531599c-1.515103,-0.682918 0.56498,-1.990401 1.232187,-1.882676c0.599512,0.001502 1.487238,-0.615385 0.483802,-1.086853c0.846467,-0.065218 2.063933,-1.857877 0.671931,-2.504064c1.032002,-1.237056 0.236782,-3.929071 -0.194118,-5.477224c-0.64959,-1.869472 -1.717767,-3.223421 -2.925109,-3.945406c-0.195473,-1.906367 1.666152,-1.342914 2.421239,-1.441845c1.143358,0.072813 2.309232,-0.022814 3.305383,-1.062172c1.345923,-1.039716 2.490125,0.695519 3.721336,1.062327c1.245359,0.133907 2.540808,-0.374074 3.753411,0.215012c0.375725,0.446229 1.000349,1.151037 0.248085,1.489285c-1.436689,1.335209 -2.778384,3.307693 -3.138532,6.109639c-0.543331,1.558648 0.419842,2.911125 -0.460821,4.028909c-0.009164,1.315141 2.043668,1.49892 0.89449,2.146534c0.787568,0.712898 2.476635,0.263237 2.64899,1.846594c-0.714962,0.939046 -1.717564,0.568458 -2.574225,0.656124c-0.290496,0.165268 -1.020492,-0.403255 -0.909365,0.432541c-0.056921,3.745221 0.525683,7.427699 1.089112,11.02203c0.000719,1.760976 2.601487,0.762512 1.155883,2.761168c-1.06782,1.534866 0.497752,3.685024 1.040124,5.050285c0.737751,1.497656 2.047313,2.255725 1.938011,4.454092c0.751493,0.090328 1.64536,2.043851 0.606342,2.530603c-5.623241,0.196976 -11.250708,0.332574 -16.874847,0.273577l0.000002,0z" fill-opacity="null" stroke-width="3" fill="#333333"/>
  <rect id="svg_104" height="26.851818" width="39.814765" y="66.203881" x="106.203936" fill-opacity="null" stroke-width="3" fill="#333333"/>
  <path stroke="#fc6132" id="svg_101" d="m374.115114,89.615927c-1.100058,0.390708 -1.948229,-2.223734 -0.584232,-2.508141c1.200261,0.035882 -0.298498,-1.858277 0.784884,-2.496328c1.246178,-1.922877 2.482233,-3.928085 3.280877,-6.403089c-0.402396,-0.843587 -1.066507,-1.64957 -0.979731,-2.803888c0.783299,-0.421669 1.950188,-0.135873 1.996587,-2.090768c0.712326,-3.528386 0.902319,-7.258953 1.058464,-10.934119c-0.786107,-0.985274 -2.404893,-0.051893 -3.503492,-0.553749c-1.666613,-0.711373 0.621479,-2.073334 1.355406,-1.96112c0.659463,0.001564 1.635962,-0.641026 0.532183,-1.132139c0.931113,-0.067936 2.270325,-1.935288 0.739124,-2.6084c1.135201,-1.2886 0.260459,-4.092782 -0.213531,-5.705442c-0.714549,-1.947366 -1.889543,-3.35773 -3.217619,-4.109797c-0.21502,-1.985799 1.832767,-1.398869 2.663363,-1.501922c1.257693,0.075847 2.540154,-0.023764 3.63592,-1.106429c1.480516,-1.083037 2.739138,0.724499 4.09347,1.106591c1.369895,0.139486 2.794889,-0.38966 4.128753,0.22397c0.413296,0.464822 1.100384,1.198997 0.272893,1.551339c-1.580358,1.390843 -3.056222,3.445514 -3.452385,6.364206c-0.597664,1.623593 0.461825,3.032423 -0.506903,4.196781c-0.010081,1.369939 2.248035,1.561375 0.983938,2.235973c0.866326,0.742602 2.724299,0.274205 2.913889,1.923535c-0.786458,0.978173 -1.88932,0.592144 -2.831646,0.683463c-0.319546,0.172153 -1.122542,-0.420058 -1.000302,0.450563c-0.062613,3.901272 0.578251,7.737186 1.198023,11.481281c0.00079,1.834349 2.861635,0.794284 1.271471,2.876216c-1.174602,1.598819 0.547527,3.838567 1.144136,5.260713c0.811526,1.56006 2.252045,2.349714 2.131813,4.63968c0.826642,0.094091 1.809895,2.129011 0.666975,2.636045c-6.185564,0.205182 -12.375778,0.346431 -18.562331,0.284975l0.000003,0z" fill-opacity="null" stroke-width="3" fill="#333333"/>
  <path stroke="#fc6132" id="svg_100" d="m164.738943,88.691591c-1.000053,0.37508 -1.771118,-2.134785 -0.531121,-2.407815c1.091147,0.034446 -0.271361,-1.783946 0.713531,-2.396475c1.132889,-1.845962 2.256576,-3.770962 2.982615,-6.146966c-0.365814,-0.809843 -0.969551,-1.583587 -0.890664,-2.691732c0.71209,-0.404802 1.772899,-0.130438 1.81508,-2.007138c0.647568,-3.387251 0.82029,-6.968595 0.96224,-10.496754c-0.714643,-0.945863 -2.186267,-0.049818 -3.184993,-0.531599c-1.515103,-0.682918 0.564981,-1.990401 1.232187,-1.882676c0.599512,0.001502 1.487238,-0.615385 0.483803,-1.086853c0.846466,-0.065218 2.063932,-1.857877 0.671931,-2.504064c1.032001,-1.237056 0.236782,-3.929071 -0.194119,-5.477225c-0.64959,-1.869472 -1.717766,-3.223421 -2.925109,-3.945406c-0.195472,-1.906367 1.666152,-1.342914 2.42124,-1.441845c1.143357,0.072814 2.309231,-0.022814 3.305382,-1.062172c1.345924,-1.039715 2.490125,0.69552 3.721336,1.062327c1.245359,0.133907 2.540808,-0.374073 3.753412,0.215012c0.375724,0.446229 1.000349,1.151037 0.248084,1.489285c-1.436688,1.33521 -2.778384,3.307694 -3.138532,6.109639c-0.543331,1.558649 0.419842,2.911126 -0.460821,4.02891c-0.009164,1.315141 2.043668,1.49892 0.894489,2.146534c0.787569,0.712898 2.476636,0.263237 2.648991,1.846594c-0.714962,0.939046 -1.717564,0.568459 -2.574225,0.656125c-0.290496,0.165267 -1.020492,-0.403256 -0.909365,0.432541c-0.056921,3.745221 0.525683,7.427698 1.089112,11.022029c0.000719,1.760976 2.601487,0.762513 1.155883,2.761168c-1.06782,1.534866 0.497752,3.685025 1.040124,5.050285c0.737751,1.497657 2.047314,2.255725 1.938012,4.454092c0.751493,0.090328 1.645359,2.043851 0.606342,2.530603c-5.623241,0.196975 -11.250708,0.332574 -16.874847,0.273576l0.000003,0z" fill-opacity="null" stroke-width="3" fill="#333333"/>
  <rect stroke="#f4511e" id="svg_86" height="129.925953" width="284.962937" y="65.759279" x="131.537071" stroke-opacity="null" stroke-width="5" fill="#f4511e"/>
  <path stroke="#f4511e" transform="rotate(-90.35034942626953 280.5342102050781,236.35797119140625) " id="svg_87" d="m179.597614,236.357961l33.645571,-54.629267l134.58177,0c18.58205,0 33.645869,24.458326 33.645869,54.629267c0,30.170622 -15.06382,54.629273 -33.645869,54.629273l-134.58177,0l-33.645571,-54.629273z" stroke-opacity="null" stroke-width="5" fill="#333333"/>
  <rect stroke="#ff5826" id="svg_88" height="251.851536" width="9.259247" y="65.277956" x="131.203906" stroke-width="5" fill="#333333"/>
  <rect stroke="#ff5826" id="svg_89" height="254.629298" width="12.962948" y="65.277956" x="420.092431" stroke-width="6" fill="#333333"/>
  <rect stroke="#ff5826" id="svg_90" height="253.703387" width="12.037022" y="65.277956" x="128.426133" stroke-width="6" fill="#333333"/>
  <rect stroke="#f4511e" id="svg_93" height="118.518368" width="81.481379" y="199.537045" x="144.166852" stroke-width="5" fill="#f4511e"/>
  <rect stroke="#f4511e" id="svg_94" height="118.518368" width="81.481379" y="199.537045" x="336.759193" stroke-width="5" fill="#f4511e"/>
  <rect stroke="#ff5826" id="svg_95" height="254.629298" width="9.259247" y="65.277956" x="168.240895" stroke-width="5" fill="#333333"/>
  <rect stroke="#ff5826" id="svg_96" height="255.555238" width="9.259247" y="65.277956" x="379.351731" stroke-width="5" fill="#333333"/>
  <rect stroke="#ff5826" id="svg_97" height="27.777742" width="162.036831" y="78.240904" x="197.870488" fill-opacity="null" stroke-width="5" fill="#333333"/>
  <rect stroke="#fc6132" id="svg_98" height="1.851846" width="94.444322" y="219.907386" x="131.203908" fill-opacity="null" stroke-width="5" fill="#333333"/>
  <rect stroke="#fc6132" id="svg_99" height="1.851846" width="93.518401" y="219.907386" x="334.907344" fill-opacity="null" stroke-width="5" fill="#333333"/>
  <rect stroke="#f4511e" id="svg_108" height="13.888871" width="104.629497" y="311.573939" x="121.944658" stroke-opacity="null" stroke-width="5" fill="#f4511e"/>
  <rect stroke="#f4511e" id="svg_109" height="13.888871" width="103.703578" y="311.573939" x="335.833266" stroke-opacity="null" stroke-width="5" fill="#f4511e"/>
  <rect id="svg_110" height="63.888808" width="104.629497" y="288.425821" x="228.426004" fill-opacity="null" stroke-width="3" fill="#333333"/>
  <path stroke="#ff5826" id="svg_111" d="m167.04358,326.122907l2.256941,-21.296281l7.523138,0l2.25694,21.296281l-12.037019,0z" fill-opacity="null" stroke-opacity="null" stroke-width="4" fill="#333333"/>
  <path stroke="#333333" id="svg_113" d="m130.006591,326.122907l1.562497,-21.296281l5.208326,0l1.562497,21.296281l-8.33332,0z" fill-opacity="null" stroke-width="4" fill="#333333"/>
  <path stroke="#333333" id="svg_114" d="m168.895429,326.122907l1.562497,-21.296281l5.208325,0l1.562498,21.296281l-8.33332,0z" fill-opacity="null" stroke-width="4" fill="#333333"/>
  <path stroke="#333333" id="svg_115" d="m380.006265,326.122907l1.562497,-21.296281l5.208325,0l1.562498,21.296281l-8.33332,0z" fill-opacity="null" stroke-width="4" fill="#333333"/>
  <path stroke="#333333" id="svg_116" d="m422.598802,326.122907l1.562497,-21.296281l5.208325,0l1.562498,21.296281l-8.33332,0z" fill-opacity="null" stroke-width="4" fill="#333333"/>
 </g>
</svg>